# xmcd
#
# Track frame offsets: 
#        150
#        18283
#        35953
#        51060
#        67344
#        84897
#        109016
#        133252
#        150166
#        174734
#        196792
#        214532
#        233848
#
# Disc length: 3418 seconds
#
# Revision: 0
# Processed by: cddbd v1.5.2PL0 Copyright (c) Steve Scherf et al.
# Submitted via: ExactAudioCopy v1.3
#
DISCID=aa0d580d
DTITLE=BillyLee Janey - Blues Power
DYEAR=2019
DGENRE=Blues
TTITLE0=Who Let the Dog Out
TTITLE1=Blues Alright
TTITLE2=Gimme Some Blues Power
TTITLE3=Good Time Charlie
TTITLE4=Guitar Lightnin’
TTITLE5=Damn Good
TTITLE6=Superstar
TTITLE7=Mary Had a Little Lamb
TTITLE8=Hellbound Nite Rider
TTITLE9=Sky Cryin’
TTITLE10=Lion Song
TTITLE11=Ghost Ridin’ the Whip
TTITLE12=Mean Ol’ Twister
EXTD=
EXTT0=
EXTT1=
EXTT2=
EXTT3=
EXTT4=
EXTT5=
EXTT6=
EXTT7=
EXTT8=
EXTT9=
EXTT10=
EXTT11=
EXTT12=
PLAYORDER=
